# xmcd CD database file
#
# Track frame offsets:
#	150
#	20780
#	36535
#	57220
#	74160
#	88273
#	125468
#	141775
#	162198
#	179475
#	198290
#	220243
#	259100
#	278340
#	301183
#	323418
#
# Disc length: 4703 seconds
#
# Revision: 0
# Processed by: cddbd v1.4PL0 Copyright (c) Steve Scherf et al.
# Submitted via: CDex 1.50
#
DISCID=ed125d10
DTITLE=Kenn Lending Blues band - Diggin' the blues
DYEAR=1990
DGENRE=Blues
TTITLE0=Together we can make it
TTITLE1=Bad blood
TTITLE2=It's a whole lot af trouble
TTITLE3=Don't stop doing good
TTITLE4=Is it you or me
TTITLE5=Time is slippin'
TTITLE6=Got myn mojo working
TTITLE7=try to get along
TTITLE8=A5 blues
TTITLE9=Ain't it hard
TTITLE10=Schooldays
TTITLE11=I'm in an awful mood
TTITLE12=It ain't good news
TTITLE13=treat everybody right
TTITLE14=before the stroke af twelve
TTITLE15=the trill is gone
EXTD=YEAR: 1990
EXTT0=
EXTT1=
EXTT2=
EXTT3=
EXTT4=
EXTT5=
EXTT6=
EXTT7=
EXTT8=
EXTT9=
EXTT10=
EXTT11=
EXTT12=
EXTT13=
EXTT14=
EXTT15=
PLAYORDER=
